<?xml version="1.0" standalone="no"?>
<!DOCTYPE svg PUBLIC "-//W3C//DTD SVG 20010904//EN"
 "http://www.w3.org/TR/2001/REC-SVG-20010904/DTD/svg10.dtd">
<svg version="1.0" xmlns="http://www.w3.org/2000/svg"
 width="2000.000000pt" height="1814.000000pt" viewBox="0 0 2000.000000 1814.000000"
 preserveAspectRatio="xMidYMid meet">
<metadata>
Created by potrace 1.15, written by Peter Selinger 2001-2017
</metadata>
<g transform="translate(0.000000,1814.000000) scale(0.100000,-0.100000)"
fill="#000000" stroke="none">
<path d="M0 9070 l0 -9070 10000 0 10000 0 0 9070 0 9070 -10000 0 -10000 0 0
-9070z m14950 8830 c1079 -52 2085 -409 2930 -1039 376 -281 755 -660 1044
-1046 221 -295 471 -719 581 -985 440 -1068 550 -2902 260 -4343 -193 -956
-702 -1984 -1439 -2907 -249 -312 -467 -552 -825 -910 -755 -754 -1566 -1424
-2990 -2469 -547 -401 -980 -741 -1500 -1174 -931 -776 -1984 -1743 -2579
-2367 -252 -265 -351 -384 -416 -504 -49 -89 -67 -107 -94 -90 -8 5 -58 84
-111 174 -338 577 -717 998 -1586 1760 -580 508 -912 775 -1825 1466 -2068
1566 -2472 1890 -3345 2683 -919 836 -1508 1521 -1967 2286 -748 1249 -1059
2587 -1009 4331 15 504 35 732 87 1009 65 340 166 627 364 1030 232 471 486
866 806 1250 138 166 472 501 634 635 372 310 656 489 1172 745 591 292 890
381 1483 441 216 21 1072 31 1338 15 590 -36 899 -116 1362 -351 392 -200 651
-356 889 -535 716 -539 1355 -1328 1570 -1938 20 -56 65 -216 100 -356 36
-139 67 -255 69 -257 2 -2 77 157 167 353 182 402 283 603 402 800 497 827
1238 1478 2130 1872 551 243 1165 387 1788 420 213 12 283 12 510 1z"/>
</g>
</svg>
